<?xml version="1.0" encoding="UTF-8" standalone="no"?>
<!DOCTYPE svg PUBLIC "-//W3C//DTD SVG 20010904//EN" "http://www.w3.org/TR/2001/REC-SVG-20010904/DTD/svg10.dtd">
<svg version="1.0" xmlns="http://www.w3.org/2000/svg" width="512.000000pt" height="238.000000pt" viewBox="0 0 512.000000 238.000000" preserveAspectRatio="xMidYMid meet">

<g transform="translate(0.000000,238.000000) scale(0.100000,-0.100000)" fill="#000000" stroke="none">
<path d="M4663 1643 c-127 -3 -143 -5 -143 -21 0 -14 -2 -14 -9 -3 -10 15 -94 16 -290 4 -91 -5 -104 -8 -109 -25 -3 -11 -10 -17 -18 -14 -9 4 -14 -2 -14 -16 0 -19 4 -20 53 -15 55 7 268 13 480 15 95 1 127 4 125 13 -2 7 6 14 17 16 16 3 17 2 5 -6 -11 -7 15 -11 90 -13 l105 -3 3 -65 c2 -46 8 -69 19 -77 13 -10 14 -15 3 -28 -10 -12 -11 -63 -6 -239 5 -127 4 -226 -1 -229 -5 -3 -96 -8 -203 -11 -179 -6 -617 -21 -1340 -46 -157 -6 -609 -21 -1005 -35 -920 -31 -962 -33 -969 -51 -7 -19 -66 -19 -66 1 0 12 -19 14 -127 8 -75 -3 -131 -11 -135 -17 -6 -8 -10 -8 -16 1 -6 9 -83 9 -347 -1 -187 -7 -398 -12 -470 -12 l-130 1 -6 100 c-4 55 -10 197 -13 317 -7 203 -6 217 11 222 10 3 117 8 238 11 121 3 333 9 470 15 138 5 287 10 333 10 66 0 82 3 82 15 0 8 7 15 15 15 8 0 15 -6 15 -12 0 -10 36 -12 162 -7 90 4 202 7 251 8 67 1 87 4 87 15 0 15 24 28 34 19 3 -3 -2 -12 -12 -20 -15 -13 -11 -14 32 -9 27 3 83 6 125 6 74 0 77 1 100 33 13 17 21 25 18 15 -6 -18 28 -55 37 -40 3 6 14 8 24 5 15 -4 19 1 20 26 l1 31 -92 0 c-51 0 -143 -3 -205 -7 -102 -5 -115 -8 -137 -31 -14 -14 -28 -23 -31 -20 -3 3 2 13 11 21 20 21 19 27 -4 27 -12 0 -21 -8 -24 -22 -4 -23 -4 -23 -6 -1 -1 21 -4 22 -89 17 -48 -3 -350 -14 -671 -25 -400 -13 -589 -23 -599 -31 -10 -9 -15 -9 -22 1 -6 10 -18 11 -46 6 -22 -5 -64 -7 -95 -6 -52 3 -58 1 -84 -31 -28 -33 -28 -33 -22 -143 4 -60 9 -204 13 -319 3 -115 10 -220 14 -232 17 -44 50 -56 155 -53 132 4 157 8 151 26 -5 11 -1 13 17 7 12 -3 27 -11 34 -16 16 -13 956 20 964 34 4 6 9 5 12 -3 3 -9 6 -7 6 5 1 18 2 18 13 4 19 -22 318 -14 318 9 0 10 6 13 18 8 9 -3 29 -9 45 -12 25 -5 665 12 817 22 36 2 184 7 329 11 245 6 264 8 268 25 7 25 63 27 63 3 0 -15 17 -16 182 -10 101 4 188 12 194 17 7 6 21 6 36 0 14 -5 60 -7 104 -5 43 2 288 11 544 19 573 20 615 22 639 37 41 25 42 46 31 367 -6 168 -13 317 -16 329 -3 13 -16 35 -29 48 -22 22 -31 24 -107 22 -46 -1 -147 -4 -225 -5z m-4283 -193 c0 -5 -4 -10 -9 -10 -6 0 -13 5 -16 10 -3 6 1 10 9 10 9 0 16 -4 16 -10z m3820 -590 c0 -5 -7 -10 -16 -10 -8 0 -12 5 -9 10 3 6 10 10 16 10 5 0 9 -4 9 -10z m-1148 -42 c-7 -7 -12 -8 -12 -2 0 14 12 26 19 19 2 -3 -1 -11 -7 -17z m475 16 c-3 -3 -12 -4 -19 -1 -8 3 -5 6 6 6 11 1 17 -2 13 -5z m-2300 -76 c-3 -8 -6 -5 -6 6 -1 11 2 17 5 13 3 -3 4 -12 1 -19z m-917 -8 c0 -5 -4 -10 -10 -10 -5 0 -10 5 -10 10 0 6 5 10 10 10 6 0 10 -4 10 -10z"/>
<path d="M3760 1609 c-102 -4 -489 -17 -860 -30 -371 -12 -678 -25 -682 -28 -4 -3 -10 -19 -14 -35 l-7 -29 224 7 c123 3 269 9 324 11 55 3 172 7 260 10 721 24 728 24 752 47 13 12 26 18 30 14 5 -4 -1 -15 -12 -23 -18 -14 -12 -15 74 -9 52 3 118 6 148 6 38 0 53 4 53 14 0 7 7 19 15 26 24 20 18 30 -19 30 -30 0 -35 -4 -39 -27 l-4 -28 -2 28 c-1 23 -5 27 -28 25 -16 0 -111 -4 -213 -9z"/>
<path d="M4651 1459 c-15 -43 -14 -49 8 -49 17 0 39 23 65 68 5 8 -3 12 -27 12 -30 0 -37 -4 -46 -31z"/>
<path d="M4610 1393 l-45 -4 3 -147 c1 -81 5 -162 8 -179 l5 -33 87 0 c123 0 132 4 132 51 l0 39 -70 0 -70 0 0 30 c0 28 3 30 38 30 70 0 82 8 82 52 l0 39 -56 -7 c-43 -5 -58 -3 -65 7 -19 30 -10 39 39 39 70 0 92 9 92 35 0 57 -15 61 -180 48z"/>
<path d="M4351 1382 l-44 -3 7 -91 c3 -50 6 -131 6 -180 l0 -88 68 0 c37 0 84 3 105 6 36 6 37 8 37 50 l0 44 -60 0 c-33 0 -61 3 -61 8 -1 4 -4 63 -8 132 l-6 125 -44 -3z"/>
<path d="M4171 1253 c2 -71 -1 -134 -5 -141 -11 -18 -53 -14 -61 6 -4 9 -10 70 -13 135 l-4 117 -45 0 -45 0 6 -117 c10 -159 14 -179 46 -213 25 -26 35 -30 83 -30 106 0 130 46 125 240 l-3 125 -43 3 -43 3 2 -128z m-111 -53 c0 -5 -2 -10 -4 -10 -3 0 -8 5 -11 10 -3 6 -1 10 4 10 6 0 11 -4 11 -10z"/>
<path d="M3864 1285 c3 -47 3 -85 -1 -85 -5 1 -26 37 -48 80 l-40 80 -44 0 -44 0 7 -92 c3 -50 6 -131 6 -180 l0 -88 43 0 42 0 -4 87 c-1 49 0 85 3 82 4 -3 26 -42 49 -85 23 -43 45 -78 50 -76 4 1 22 2 40 2 l32 0 -3 147 c-1 82 -5 163 -8 181 -5 30 -7 32 -46 32 l-41 0 7 -85z"/>
<path d="M977 1320 c-15 -39 -15 -40 6 -40 14 0 32 15 50 40 l28 40 -34 0 c-30 0 -36 -4 -50 -40z"/>
<path d="M3553 1275 c6 -101 -2 -101 -53 4 l-34 71 -44 0 -45 0 6 -107 c4 -58 7 -139 7 -180 l0 -73 40 0 40 0 0 88 1 87 43 -78 c24 -43 47 -82 52 -87 5 -5 25 -7 44 -4 l35 6 -3 156 c-3 205 -2 202 -54 202 l-41 0 6 -85z"/>
<path d="M3193 1343 c-28 -4 -34 -10 -42 -41 -18 -65 -71 -300 -71 -312 0 -7 15 -10 43 -8 38 3 42 6 45 31 3 25 7 27 48 27 42 0 45 -2 51 -31 6 -30 7 -31 47 -25 22 4 42 8 44 10 2 2 -21 82 -51 177 -36 117 -58 174 -68 175 -8 1 -29 -1 -46 -3z m32 -174 c8 -45 4 -54 -21 -45 -10 4 -14 12 -10 22 3 9 6 27 6 40 0 39 18 27 25 -17z"/>
<path d="M415 1304 c-19 -45 -19 -44 4 -44 16 0 71 58 71 74 0 3 -13 6 -30 6 -25 0 -32 -6 -45 -36z"/>
<path d="M2670 1279 l0 -49 39 0 39 0 7 -130 7 -130 42 0 43 0 -5 135 -5 135 42 0 41 0 0 45 0 44 -125 0 -125 0 0 -50z"/>
<path d="M2380 1196 c0 -67 3 -151 6 -185 l7 -61 39 0 40 0 -3 85 c-2 47 -2 85 1 85 3 0 23 -35 45 -78 41 -77 41 -77 84 -80 l44 -3 -6 107 c-4 59 -7 140 -7 181 l0 73 -40 0 -39 0 -3 -86 -3 -85 -45 85 c-44 84 -46 86 -82 86 l-38 0 0 -124z"/>
<path d="M2108 1128 c2 -101 5 -184 6 -185 2 -2 53 0 114 4 l112 6 0 45 0 45 -70 -5 -70 -5 0 33 0 34 60 0 60 0 0 40 0 40 -66 0 c-62 0 -65 1 -62 23 3 20 9 22 66 25 l62 3 0 39 0 40 -109 0 -108 0 5 -182z"/>
<path d="M1773 1293 c-22 -4 -23 -9 -23 -101 0 -53 3 -134 7 -179 l6 -83 34 0 34 0 -3 99 c-2 55 -1 97 2 95 2 -3 14 -47 25 -97 l20 -92 30 3 c16 2 31 5 33 7 2 1 10 45 18 96 9 52 17 96 20 98 2 2 4 -41 4 -97 l0 -102 38 0 37 0 -6 177 c-4 98 -7 179 -8 181 0 1 -25 2 -55 2 l-54 0 -13 -91 c-6 -49 -15 -86 -19 -82 -4 4 -15 45 -25 91 -18 82 -18 82 -49 81 -17 -1 -41 -4 -53 -6z"/>
<path d="M1496 1283 c-18 -5 -19 -14 -13 -180 3 -96 8 -177 11 -180 2 -3 52 -2 110 2 l106 7 0 44 0 44 -67 -2 c-65 -3 -68 -2 -71 21 -5 31 12 41 71 41 l47 0 0 41 0 41 -60 -4 c-56 -3 -60 -1 -60 18 0 25 23 34 88 34 l42 0 0 40 0 40 -92 -1 c-51 -1 -102 -4 -112 -6z"/>
<path d="M1203 1272 l-33 -3 0 -127 c0 -70 3 -151 6 -179 l7 -53 39 0 40 0 -3 80 c-2 43 -1 81 2 84 3 3 23 -30 44 -74 l39 -80 45 0 44 0 -6 122 c-4 66 -7 147 -7 180 l0 58 -40 0 -40 0 0 -87 -1 -88 -43 78 c-24 43 -47 81 -52 85 -5 4 -24 6 -41 4z"/>
<path d="M911 1263 c-23 -5 -23 -7 -17 -65 3 -34 6 -114 6 -179 l0 -119 48 0 c26 0 78 3 115 7 l68 6 -3 41 -3 41 -67 -4 -68 -3 0 36 c0 20 3 35 8 35 4 -1 31 -1 60 0 l52 1 0 41 0 41 -62 -4 c-58 -3 -63 -1 -66 19 -3 20 2 22 68 29 67 6 71 8 66 28 -3 11 -6 29 -6 39 0 15 -10 17 -87 16 -49 -1 -99 -4 -112 -6z"/>
<path d="M613 1253 c-18 -2 -33 -8 -33 -12 0 -9 44 -154 84 -276 l23 -70 42 1 c22 0 44 3 47 6 5 6 83 332 84 351 0 4 -19 7 -43 7 l-44 0 -17 -102 c-10 -57 -21 -109 -25 -116 -4 -7 -20 39 -36 103 -16 63 -34 114 -40 113 -5 0 -25 -3 -42 -5z"/>
<path d="M342 1241 c-11 -7 -13 -42 -7 -186 l8 -178 111 7 c61 4 112 8 113 9 1 1 -1 21 -4 44 l-6 42 -65 -2 -66 -2 -1 30 c0 30 0 30 63 33 l63 3 -3 37 -3 37 -62 3 c-53 2 -63 6 -63 21 0 19 40 31 103 31 25 0 27 3 27 40 l0 40 -97 0 c-54 0 -104 -4 -111 -9z"/>
</g>
</svg>