<?xml version="1.0" encoding="UTF-8" standalone="no"?>
<!DOCTYPE svg PUBLIC "-//W3C//DTD SVG 20010904//EN" "http://www.w3.org/TR/2001/REC-SVG-20010904/DTD/svg10.dtd">
<svg version="1.0" xmlns="http://www.w3.org/2000/svg" width="563.000000pt" height="639.000000pt" viewBox="0 0 563.000000 639.000000" preserveAspectRatio="xMidYMid meet">

<g transform="translate(0.000000,639.000000) scale(0.100000,-0.100000)" fill="#000000" stroke="none">
<path d="M2027 6364 c-29 -29 -100 -201 -118 -285 -6 -29 -9 -94 -7 -144 8 -156 61 -233 212 -313 49 -26 95 -57 103 -69 8 -12 17 -46 20 -76 4 -44 2 -55 -10 -60 -18 -7 -36 7 -132 99 -76 73 -113 89 -163 73 -43 -14 -133 -72 -215 -141 -75 -62 -119 -86 -126 -67 -2 7 -24 34 -48 60 -75 80 -181 119 -326 119 l-88 0 -21 -46 c-29 -67 -23 -187 14 -266 51 -111 157 -195 266 -213 45 -7 72 -34 72 -71 0 -24 -17 -40 -80 -77 -25 -14 -99 -69 -165 -122 -66 -53 -153 -113 -193 -133 -122 -59 -201 -155 -202 -243 0 -48 -37 -103 -72 -107 -38 -5 -58 31 -65 119 -5 63 -10 78 -34 101 -33 33 -71 36 -116 8 -50 -30 -66 -70 -61 -156 3 -63 10 -85 51 -166 53 -104 62 -165 34 -231 -25 -59 -120 -197 -140 -203 -10 -3 -34 -19 -53 -36 -26 -23 -34 -38 -34 -64 0 -19 -4 -34 -9 -34 -4 0 -39 16 -77 35 -52 27 -80 35 -120 35 -79 0 -101 -12 -114 -61 -34 -125 70 -284 199 -305 64 -10 67 -20 48 -137 -46 -286 -47 -558 -3 -832 14 -88 31 -191 37 -230 22 -144 48 -208 127 -318 83 -115 143 -242 202 -429 25 -81 60 -135 125 -197 62 -59 157 -174 195 -237 59 -96 158 -220 214 -266 33 -28 95 -67 136 -85 84 -39 146 -78 270 -172 131 -99 274 -159 458 -191 73 -13 74 -14 97 -59 34 -68 61 -87 151 -110 184 -47 282 -56 609 -56 323 0 445 9 630 47 112 23 135 34 184 90 42 49 66 61 209 104 179 54 270 89 372 144 177 97 319 229 437 408 47 71 125 167 207 255 130 139 331 398 406 520 117 193 167 399 190 782 18 303 39 515 61 615 11 52 23 114 26 137 l6 42 -57 25 c-31 14 -56 31 -56 39 0 58 -25 234 -41 295 -40 143 -120 319 -199 437 -26 39 -54 84 -64 102 -20 39 -22 136 -2 152 7 6 38 10 68 10 136 -3 238 74 321 242 25 52 47 102 49 113 5 30 -61 49 -172 50 -79 0 -108 -5 -170 -27 -97 -35 -96 -35 -91 -17 1 8 5 40 8 71 5 53 4 57 -25 77 -21 16 -45 22 -82 22 -43 0 -56 -5 -80 -28 -34 -35 -46 -78 -55 -200 l-7 -94 -31 39 c-61 76 -165 170 -270 241 -110 75 -127 93 -127 135 0 13 29 111 65 218 36 107 65 211 65 231 0 78 -35 126 -140 189 -36 22 -114 72 -175 110 -161 103 -236 139 -288 139 -56 0 -123 -30 -190 -83 -161 -131 -213 -165 -229 -149 -11 11 -112 241 -179 407 -93 229 -142 271 -343 296 -174 21 -258 -2 -391 -106 -87 -67 -156 -115 -167 -115 -4 0 -8 16 -8 35 0 153 -187 324 -406 370 -87 18 -77 19 -107 -11z m207 -107 c74 -34 149 -107 183 -176 53 -106 30 -239 -43 -257 -33 -9 -61 18 -108 105 -21 37 -50 81 -64 97 l-27 29 -3 -45 c-4 -58 9 -101 53 -175 20 -33 37 -72 37 -87 1 -37 -28 -78 -55 -78 -35 1 -129 71 -164 124 -46 67 -56 115 -50 221 8 117 29 186 75 237 33 36 40 40 73 35 21 -3 63 -16 93 -30z m780 -222 c0 -27 -4 -85 -8 -127 -10 -86 -1 -131 16 -88 5 14 20 74 33 134 12 60 29 113 36 117 44 29 118 21 155 -16 29 -29 29 -39 8 -285 -10 -117 -14 -227 -10 -300 7 -131 26 -271 36 -265 4 3 10 73 14 157 17 364 32 536 48 520 5 -5 40 -83 79 -173 79 -182 119 -268 150 -316 23 -37 27 -119 9 -212 -5 -29 -10 -68 -9 -85 1 -38 6 -26 39 84 54 180 154 298 278 325 29 6 32 4 33 -17 1 -13 3 -30 4 -38 1 -8 3 -42 4 -75 2 -59 2 -59 15 -30 7 17 16 63 20 104 8 87 29 139 61 147 34 9 104 -14 163 -52 59 -39 63 -55 37 -140 -44 -142 -68 -317 -72 -529 -5 -233 4 -258 30 -80 47 316 61 396 83 465 13 41 24 84 24 96 0 36 21 83 40 89 21 7 126 -52 174 -97 l31 -30 -30 6 c-16 3 -40 8 -52 12 -31 9 -31 -19 1 -35 46 -25 71 -121 46 -186 -14 -36 -34 -40 -68 -15 -18 13 -40 20 -57 18 -38 -4 -43 -24 -9 -32 32 -8 84 -43 84 -56 0 -5 -12 -10 -27 -12 -33 -4 -34 -19 -4 -34 39 -20 41 -27 26 -112 -22 -126 -43 -421 -50 -687 -15 -656 -19 -711 -60 -875 -18 -72 -92 -230 -107 -230 -6 0 -7 7 -4 16 11 30 18 278 8 319 l-9 40 -6 -35 c-3 -19 -11 -71 -17 -115 -16 -108 -57 -269 -81 -316 -35 -70 -130 -146 -201 -163 -30 -7 -32 -3 -42 83 -4 42 -20 64 -41 57 -5 -1 -10 -36 -11 -77 0 -100 1 -96 -44 -119 -76 -39 -120 -19 -120 54 0 40 -22 88 -34 75 -3 -3 -10 -36 -15 -74 -12 -86 -39 -117 -100 -119 -61 -1 -63 3 -76 154 -12 138 -37 122 -40 -25 -2 -89 -14 -121 -52 -136 -75 -28 -712 -31 -744 -2 -9 7 -22 42 -29 76 -6 34 -14 66 -17 71 -11 17 -23 -21 -23 -75 0 -83 -5 -85 -152 -63 -70 11 -130 26 -141 35 -15 11 -21 34 -26 87 -9 95 -25 111 -40 40 -7 -30 -10 -33 -39 -30 -26 2 -33 -2 -38 -23 -3 -14 -11 -25 -18 -25 -6 0 -45 17 -86 38 -95 47 -112 77 -120 206 -3 58 -9 91 -17 94 -22 7 -35 -49 -29 -115 4 -39 3 -63 -3 -63 -12 0 -31 63 -31 101 0 30 -24 57 -35 39 -4 -6 -6 -25 -5 -43 1 -17 2 -36 1 -40 -1 -5 -19 13 -41 38 -48 56 -114 190 -129 263 -13 63 -15 1134 -2 1200 5 24 18 53 30 66 25 26 27 46 6 46 -27 0 -16 20 55 93 39 39 70 75 70 78 0 12 -29 19 -47 12 -10 -4 -33 -17 -52 -30 -19 -13 -40 -23 -47 -23 -21 0 -18 91 6 152 25 66 25 70 -2 66 -36 -5 -32 25 10 79 46 57 74 108 65 116 -3 4 -25 -8 -49 -25 -24 -17 -47 -29 -50 -26 -3 4 -8 19 -10 36 -6 36 23 73 110 140 75 57 246 172 258 172 18 0 5 -149 -21 -246 -6 -22 -27 -66 -46 -98 -38 -63 -35 -96 5 -56 27 27 30 23 36 -32 13 -117 26 -169 43 -166 12 3 15 13 13 40 -4 49 37 498 47 515 6 11 25 1 84 -41 87 -62 118 -94 146 -149 18 -35 20 -37 30 -19 26 49 52 178 62 307 9 120 14 143 32 163 11 12 27 22 35 22 12 0 14 -46 10 -316 -3 -296 -2 -314 13 -295 10 12 22 51 28 88 18 117 34 374 28 456 -6 67 -3 85 14 123 22 45 42 56 53 29 8 -21 22 -19 47 6 12 12 19 29 16 40 -4 15 11 32 61 73 83 65 128 97 133 92 2 -3 1 -60 -2 -128 -11 -235 2 -578 21 -578 15 0 21 48 35 310 28 485 30 494 114 488 l46 -3 -1 -50z m-1647 -576 c63 -21 145 -89 156 -128 6 -24 -21 -81 -39 -81 -7 0 -26 19 -43 43 -49 70 -106 120 -129 113 -38 -12 -34 -36 11 -85 60 -64 94 -119 102 -163 l7 -38 -36 0 c-137 0 -260 198 -207 333 10 25 15 27 64 27 29 0 80 -9 114 -21z m119 -630 c21 -42 11 -75 -29 -95 -17 -9 -75 -58 -128 -109 -70 -68 -116 -103 -170 -130 -91 -46 -136 -87 -150 -139 -7 -25 -8 -88 -4 -177 7 -132 7 -139 -17 -190 -14 -30 -68 -112 -121 -184 -110 -149 -161 -241 -212 -381 -83 -230 -117 -428 -117 -694 0 -256 36 -492 112 -739 23 -78 35 -151 24 -151 -16 0 -85 83 -118 143 -48 86 -62 144 -87 357 -26 216 -32 628 -10 765 52 341 141 575 287 755 42 52 90 122 105 155 28 59 29 64 29 224 0 146 2 170 21 207 27 57 70 93 176 148 51 27 128 80 183 127 104 88 176 139 196 139 8 0 21 -14 30 -31z m3094 -156 c80 -53 201 -155 241 -203 19 -23 54 -78 79 -123 41 -74 48 -82 75 -82 l30 0 6 165 c4 99 12 181 20 205 14 39 16 40 59 40 l45 0 3 -43 c2 -23 -4 -113 -12 -199 -20 -194 -20 -280 -1 -361 18 -76 30 -100 111 -223 35 -53 73 -118 85 -143 39 -89 80 -242 94 -356 24 -185 20 -241 -23 -295 -18 -23 -19 -22 -46 103 -68 315 -196 613 -377 882 -31 47 -84 139 -118 206 -33 66 -75 137 -93 157 -18 20 -76 61 -128 91 -115 65 -136 92 -132 164 3 31 9 52 16 52 6 0 36 -16 66 -37z m-3080 -27 c0 -72 -83 -183 -210 -280 -45 -34 -205 -126 -221 -126 -13 0 -21 40 -15 76 8 42 46 88 88 105 64 26 176 110 252 189 81 85 106 93 106 36z m3992 -86 c21 -6 42 -20 48 -30 25 -47 -92 -191 -194 -239 -49 -22 -164 -43 -171 -31 -6 9 87 100 138 137 38 27 47 43 25 43 -7 -1 -42 -18 -78 -40 -35 -22 -68 -36 -72 -32 -25 25 41 126 105 159 23 11 112 36 157 42 3 1 22 -4 42 -9z m-907 -105 c52 -23 175 -126 175 -148 0 -21 97 -199 164 -302 137 -208 191 -312 259 -495 62 -168 106 -336 137 -523 15 -94 16 -115 4 -170 -8 -35 -18 -186 -24 -347 -11 -300 -23 -388 -73 -540 -61 -184 -261 -530 -373 -643 -37 -38 -114 -102 -114 -95 0 2 27 56 59 120 93 184 111 310 71 499 -32 151 -24 195 31 187 32 -4 55 -50 74 -148 19 -94 32 -116 64 -105 43 13 113 307 152 640 31 264 30 456 -5 635 -65 344 -182 642 -350 895 -41 61 -91 142 -112 180 -60 112 -90 151 -141 183 -86 56 -101 84 -88 162 8 47 15 48 90 15z m-3979 0 c16 -11 22 -29 27 -80 12 -124 67 -184 143 -156 19 7 39 10 42 6 4 -4 6 -37 6 -75 -2 -85 -32 -154 -100 -230 -69 -76 -90 -107 -125 -192 -61 -145 -63 -148 -70 -136 -5 7 -5 31 -2 54 3 26 1 44 -6 48 -6 4 -11 22 -11 39 0 31 13 56 77 152 67 99 67 220 0 313 -70 99 -84 199 -36 251 23 25 28 25 55 6z m870 -215 c-3 -74 -9 -214 -13 -310 -5 -96 -8 -281 -7 -410 0 -229 1 -237 28 -320 61 -185 148 -302 297 -400 173 -114 359 -177 609 -206 183 -22 174 -19 194 -57 23 -41 18 -68 -14 -84 -316 -158 -452 -212 -533 -213 -59 0 -113 43 -167 135 -42 71 -64 93 -104 110 -61 26 -101 19 -199 -32 -151 -80 -167 -127 -96 -273 54 -113 161 -221 270 -272 103 -50 132 -58 229 -64 133 -10 294 37 513 148 33 16 61 27 64 24 3 -3 -13 -63 -35 -133 -87 -271 -118 -442 -107 -578 3 -44 9 -87 11 -96 3 -9 -3 -24 -12 -33 -14 -14 -40 -16 -192 -14 -170 3 -178 2 -214 -20 -61 -38 -68 -115 -28 -277 26 -105 41 -189 35 -202 -9 -25 -108 -11 -187 26 -78 37 -151 110 -191 192 -14 30 -41 114 -60 187 -23 90 -40 137 -53 147 -29 22 -90 19 -115 -6 -19 -19 -20 -30 -17 -120 1 -54 1 -99 -2 -99 -8 0 -103 100 -137 145 -17 22 -66 99 -108 170 -115 194 -156 247 -234 303 -88 64 -103 87 -134 197 -14 50 -45 155 -70 235 -80 259 -87 319 -90 690 -1 311 -1 329 21 410 90 331 159 482 302 660 121 152 140 187 140 264 0 96 15 115 148 187 85 47 134 82 182 129 l65 65 8 -35 c5 -19 6 -96 3 -170z m3092 -14 c13 -12 39 -48 58 -81 42 -73 52 -88 85 -140 80 -122 207 -343 249 -430 108 -227 200 -606 200 -824 0 -301 -84 -851 -130 -851 -4 0 -15 25 -26 57 -23 67 -62 113 -97 113 -29 0 -83 -35 -111 -73 l-20 -27 28 -145 c22 -112 27 -164 24 -229 -4 -77 -9 -94 -68 -222 -35 -77 -80 -164 -99 -194 -36 -57 -128 -160 -142 -160 -5 0 -32 -15 -61 -33 -76 -47 -108 -60 -112 -44 -2 6 -9 32 -16 57 -25 92 -93 190 -132 190 -32 0 -93 -69 -116 -133 -31 -81 -28 -138 8 -215 17 -35 30 -68 30 -74 0 -5 -12 -28 -27 -49 -20 -28 -49 -50 -98 -74 -72 -35 -200 -74 -210 -63 -3 3 13 112 36 242 41 230 42 238 26 272 -29 60 -60 66 -310 68 -217 1 -219 1 -238 24 -10 13 -23 41 -29 61 -5 20 -35 68 -65 107 -71 88 -71 89 25 339 40 105 83 231 95 280 25 101 39 115 111 115 62 0 129 -27 180 -73 36 -34 53 -61 84 -141 62 -154 107 -214 195 -258 85 -43 282 -50 358 -13 59 29 81 86 74 188 -7 103 -22 154 -49 168 -12 6 -62 18 -112 25 -113 17 -135 32 -159 110 -31 102 -60 156 -112 210 -90 91 -238 145 -444 160 -47 4 -92 11 -98 17 -7 5 -13 28 -13 51 l0 41 172 28 c453 75 710 217 862 477 75 127 106 275 106 500 0 143 19 649 25 667 5 16 33 7 63 -21z m-4097 -564 c3 -57 -5 -148 -27 -302 -64 -456 -70 -780 -19 -1125 29 -194 48 -246 126 -346 78 -99 213 -240 299 -312 109 -92 123 -109 194 -231 124 -214 257 -385 328 -422 69 -36 94 17 70 144 -13 65 -13 85 -4 94 19 19 45 -2 60 -47 7 -21 19 -72 28 -114 29 -143 133 -300 231 -349 21 -11 71 -27 112 -36 86 -20 143 -47 165 -78 18 -25 22 -98 6 -98 -24 0 -186 62 -262 100 -100 51 -164 95 -239 167 -66 63 -138 116 -262 193 -151 94 -194 140 -270 288 -68 131 -95 167 -242 322 -277 291 -291 307 -328 376 -61 118 -126 406 -148 661 -21 233 3 565 57 811 14 63 29 151 34 197 8 81 22 123 43 137 16 10 47 -10 48 -30z m-264 -62 c52 -23 96 -72 104 -116 9 -51 -5 -50 -38 1 -39 63 -93 75 -93 20 0 -21 25 -59 69 -105 10 -10 10 -15 2 -18 -40 -13 -134 52 -162 111 -21 47 -23 74 -9 111 8 22 13 24 47 19 21 -3 57 -13 80 -23z m5330 -496 c3 -8 -6 -64 -20 -122 -31 -123 -53 -307 -62 -507 -12 -288 -38 -507 -70 -599 -8 -23 -15 -48 -15 -56 0 -8 -22 -60 -49 -116 -43 -90 -89 -159 -272 -411 -89 -123 -203 -228 -394 -366 -266 -192 -338 -247 -410 -311 -44 -39 -82 -74 -85 -78 -18 -23 -124 -62 -218 -78 -59 -11 -119 -22 -134 -26 -27 -6 -28 -5 -28 40 0 42 2 46 28 51 81 18 193 58 237 85 28 18 91 73 140 124 83 85 100 97 225 161 224 113 356 212 496 373 145 166 280 399 367 633 47 127 66 230 72 402 17 430 40 579 115 735 38 80 63 102 77 66z m-2580 -556 c18 -17 23 -32 23 -72 0 -28 7 -96 15 -151 7 -55 12 -101 10 -103 -4 -5 -229 189 -269 231 -37 40 -52 82 -36 102 10 12 38 15 123 15 100 0 113 -2 134 -22z m277 -2 c17 -69 26 -271 16 -368 -13 -122 -31 -210 -45 -214 -10 -3 -40 38 -100 135 -33 53 -73 234 -82 367 -7 108 -15 101 118 103 84 1 87 0 93 -23z m-1471 -154 c9 -10 25 -38 36 -62 11 -25 43 -67 70 -95 37 -36 51 -57 51 -77 0 -70 -71 -168 -121 -168 -39 0 -44 15 -11 36 34 22 51 44 52 67 0 21 -28 23 -37 2 -10 -28 -73 -64 -96 -56 -61 23 -177 184 -177 246 0 56 36 94 90 95 19 1 51 8 70 15 47 18 54 18 73 -3z m1698 -23 c24 -24 22 -43 -19 -126 -29 -61 -54 -85 -72 -67 -5 5 -12 51 -14 102 l-4 92 27 6 c14 3 31 7 36 9 20 7 25 5 46 -16z m-629 -86 c202 -207 338 -390 338 -457 0 -62 -51 -139 -81 -121 -5 4 -26 39 -45 78 -40 80 -210 353 -226 363 -6 4 -14 0 -19 -7 -5 -9 1 -28 17 -54 28 -46 115 -219 158 -315 16 -36 41 -92 56 -125 44 -96 50 -165 16 -165 -7 0 -49 24 -92 53 -44 28 -109 70 -144 93 -120 76 -190 167 -190 247 0 21 15 77 34 125 42 108 66 220 66 312 0 38 4 70 8 70 5 0 51 -44 104 -97z m-202 26 c0 -80 -18 -147 -42 -160 -15 -8 -40 -5 -102 11 -130 36 -175 51 -181 60 -11 17 255 148 303 149 20 1 22 -3 22 -60z m1048 20 c57 -19 152 -75 152 -89 0 -5 -15 -6 -33 -3 -50 8 -146 -14 -210 -47 -67 -35 -117 -40 -117 -11 0 10 7 24 15 31 8 7 21 34 29 60 25 84 32 92 74 84 20 -3 61 -15 90 -25z m188 -180 c97 -66 117 -206 38 -263 -14 -11 -35 -40 -46 -65 -23 -53 -24 -52 -69 64 -49 125 -75 169 -124 213 -46 41 -46 41 -23 53 84 45 156 45 224 -2z m-1514 -11 c70 -23 128 -45 128 -48 0 -10 -201 -107 -245 -119 -22 -6 -64 -11 -92 -11 -61 0 -61 -2 -42 124 10 67 14 76 38 85 47 17 83 12 213 -31z m-324 -62 c-6 -123 -32 -152 -115 -130 -30 8 -29 18 6 62 16 20 36 60 45 89 17 50 26 61 55 62 11 1 13 -16 9 -83z m2159 -165 l41 -19 7 -86 c5 -63 4 -90 -5 -101 -18 -21 -105 -45 -164 -45 -69 1 -160 38 -164 67 -5 33 33 107 74 143 71 62 136 75 211 41z m-1407 -345 c77 -48 182 -123 268 -191 7 -5 42 -46 78 -89 77 -94 81 -119 18 -124 -49 -4 -89 24 -99 67 -6 29 -53 61 -89 61 -22 0 -21 -5 14 -55 54 -79 61 -76 -200 -71 -159 3 -236 8 -245 16 -10 8 -15 31 -15 62 l0 50 72 -7 c66 -7 71 -6 59 9 -7 9 -18 16 -23 16 -5 0 -32 10 -59 21 -39 17 -49 26 -49 45 0 13 3 24 6 24 4 0 39 -18 79 -40 96 -53 155 -74 155 -55 0 17 -59 63 -128 100 -103 56 -123 113 -86 243 28 98 26 97 92 34 32 -32 100 -84 152 -116z m-1975 -179 c70 -75 96 -113 151 -218 64 -125 126 -202 204 -256 14 -9 27 -20 30 -23 3 -4 58 -42 122 -84 65 -42 157 -110 205 -152 153 -132 222 -174 386 -231 151 -52 177 -67 177 -103 0 -44 -32 -47 -152 -16 -122 32 -182 63 -347 179 -69 48 -172 110 -229 138 -155 76 -189 111 -427 439 -33 46 -92 115 -131 154 -77 77 -111 138 -138 247 -9 36 -16 69 -16 73 0 15 81 -57 165 -147z m3410 -273 c24 -9 41 -50 55 -130 10 -56 10 -75 0 -93 -14 -28 -25 -19 -42 34 -9 29 -19 41 -36 43 -19 3 -22 -1 -22 -32 0 -19 9 -51 20 -71 19 -35 19 -35 0 -35 -45 0 -84 141 -60 216 21 64 45 83 85 68z m-468 -131 c-4 -49 -18 -144 -32 -213 -48 -246 -72 -376 -85 -465 -17 -117 -31 -141 -89 -155 -294 -70 -1128 -63 -1312 11 -24 9 -28 21 -52 137 -14 70 -35 183 -47 252 -25 152 -78 437 -86 466 -3 13 1 28 11 38 15 15 89 16 857 16 l841 0 -6 -87z m899 -172 c-68 -130 -257 -298 -436 -386 -77 -37 -450 -169 -458 -161 -8 9 10 85 22 95 14 12 90 31 224 56 124 24 141 33 272 151 61 56 227 185 276 214 21 13 41 26 44 29 9 10 65 40 68 36 2 -2 -4 -17 -12 -34z"/>
<path d="M1917 4120 c-99 -25 -208 -115 -258 -211 -31 -61 -38 -177 -14 -250 36 -110 98 -181 207 -237 46 -23 65 -27 143 -26 77 0 98 4 145 27 172 83 263 260 216 421 -47 160 -180 272 -334 281 -37 2 -84 0 -105 -5z m84 -146 c30 -15 59 -69 59 -109 0 -72 -71 -131 -148 -122 -37 4 -53 12 -80 42 -32 35 -34 41 -30 91 9 105 99 149 199 98z m157 -341 c30 -41 0 -93 -54 -93 -58 0 -81 71 -35 108 20 17 71 8 89 -15z"/>
<path d="M3745 4116 c-139 -35 -230 -122 -280 -265 -38 -111 0 -245 100 -346 183 -184 460 -138 591 98 27 48 29 60 29 157 0 95 -3 110 -27 156 -80 152 -260 240 -413 200z m71 -135 c81 -50 84 -185 4 -226 -39 -20 -110 -19 -136 3 -34 29 -54 69 -54 112 0 63 23 99 75 118 45 16 77 14 111 -7z m152 -337 c25 -17 31 -74 9 -92 -20 -17 -73 -18 -91 -3 -22 19 -20 67 4 91 24 24 48 25 78 4z"/>
<path d="M2800 3410 c-179 -3 -326 -7 -327 -8 -1 -1 -9 -9 -17 -18 -32 -32 -8 -220 39 -300 75 -128 248 -191 453 -166 177 22 288 98 355 242 26 56 30 76 30 148 0 107 -6 112 -123 109 -47 -1 -231 -4 -410 -7z m393 -279 c15 -15 -15 -54 -68 -89 -56 -37 -158 -62 -254 -62 -64 0 -71 2 -71 20 0 27 56 88 99 107 86 38 265 53 294 24z"/>
</g>
</svg>