<?xml version="1.0" encoding="UTF-8"?>
<!DOCTYPE svg PUBLIC "-//W3C//DTD SVG 1.1//EN" "http://www.w3.org/Graphics/SVG/1.1/DTD/svg11.dtd">
<svg xmlns="http://www.w3.org/2000/svg" version="1.1" width="600px" height="556px" style="shape-rendering:geometricPrecision; text-rendering:geometricPrecision; image-rendering:optimizeQuality; fill-rule:evenodd; clip-rule:evenodd" xmlns:xlink="http://www.w3.org/1999/xlink">
<g><path style="opacity:1" fill="#add13b" d="M 284.5,451.5 C 282.485,450.076 280.152,449.41 277.5,449.5C 275.571,449.769 273.905,449.269 272.5,448C 274.364,445.312 276.364,442.812 278.5,440.5C 279.906,440.027 280.573,439.027 280.5,437.5C 281.786,434.883 283.453,432.55 285.5,430.5C 286.906,430.027 287.573,429.027 287.5,427.5C 289.344,423.808 291.677,420.475 294.5,417.5C 295.906,417.027 296.573,416.027 296.5,414.5C 297.786,411.883 299.453,409.55 301.5,407.5C 302.906,407.027 303.573,406.027 303.5,404.5C 307.677,397.475 312.344,390.808 317.5,384.5C 318.906,384.027 319.573,383.027 319.5,381.5C 323.677,374.475 328.344,367.808 333.5,361.5C 334.906,361.027 335.573,360.027 335.5,358.5C 339.677,351.475 344.344,344.808 349.5,338.5C 350.906,338.027 351.573,337.027 351.5,335.5C 352.786,332.883 354.453,330.55 356.5,328.5C 357.906,328.027 358.573,327.027 358.5,325.5C 360.344,321.808 362.677,318.475 365.5,315.5C 366.906,315.027 367.573,314.027 367.5,312.5C 368.786,309.883 370.453,307.55 372.5,305.5C 373.906,305.027 374.573,304.027 374.5,302.5C 378.677,295.475 383.344,288.808 388.5,282.5C 389.906,282.027 390.573,281.027 390.5,279.5C 394.677,272.475 399.344,265.808 404.5,259.5C 405.906,259.027 406.573,258.027 406.5,256.5C 409.113,252.201 411.78,247.868 414.5,243.5C 411.632,238.308 408.465,238.308 405,243.5C 352.903,304.686 300.57,365.686 248,426.5C 223.75,376.084 217.917,323.751 230.5,269.5C 231.924,267.485 232.59,265.152 232.5,262.5C 238.184,240.088 247.517,219.421 260.5,200.5C 261.906,200.027 262.573,199.027 262.5,197.5C 266.402,190.599 271.069,184.266 276.5,178.5C 277.906,178.027 278.573,177.027 278.5,175.5C 279.167,174.167 280.167,173.167 281.5,172.5C 282.906,172.027 283.573,171.027 283.5,169.5C 285.167,167.167 287.167,165.167 289.5,163.5C 291.262,162.738 292.262,161.404 292.5,159.5C 292.833,158.5 293.5,157.833 294.5,157.5C 299.105,154.564 303.105,150.898 306.5,146.5C 317.319,135.346 329.319,125.679 342.5,117.5C 344.027,117.573 345.027,116.906 345.5,115.5C 347.027,115.573 348.027,114.906 348.5,113.5C 350.027,113.573 351.027,112.906 351.5,111.5C 354.494,109 357.827,107 361.5,105.5C 363.027,105.573 364.027,104.906 364.5,103.5C 388.345,89.2485 413.678,78.2485 440.5,70.5C 443.152,70.5905 445.485,69.9238 447.5,68.5C 450.152,68.5905 452.485,67.9238 454.5,66.5C 487.749,57.3232 521.749,53.3232 556.5,54.5C 573.556,140.054 566.056,223.387 534,304.5C 515.449,350.129 487.283,388.629 449.5,420C 399.53,456.33 344.53,466.83 284.5,451.5 Z"/></g>
<g><path style="opacity:1" fill="#cee287" d="M 454.5,66.5 C 452.485,67.9238 450.152,68.5905 447.5,68.5C 449.515,67.0762 451.848,66.4095 454.5,66.5 Z"/></g>
<g><path style="opacity:1" fill="#cee288" d="M 447.5,68.5 C 445.485,69.9238 443.152,70.5905 440.5,70.5C 442.515,69.0762 444.848,68.4095 447.5,68.5 Z"/></g>
<g><path style="opacity:1" fill="#d8e8a0" d="M 364.5,103.5 C 364.027,104.906 363.027,105.573 361.5,105.5C 361.973,104.094 362.973,103.427 364.5,103.5 Z"/></g>
<g><path style="opacity:1" fill="#d9e9a1" d="M 351.5,111.5 C 351.027,112.906 350.027,113.573 348.5,113.5C 348.973,112.094 349.973,111.427 351.5,111.5 Z"/></g>
<g><path style="opacity:1" fill="#d9e9a1" d="M 348.5,113.5 C 348.027,114.906 347.027,115.573 345.5,115.5C 345.973,114.094 346.973,113.427 348.5,113.5 Z"/></g>
<g><path style="opacity:1" fill="#d9e9a2" d="M 345.5,115.5 C 345.027,116.906 344.027,117.573 342.5,117.5C 342.973,116.094 343.973,115.427 345.5,115.5 Z"/></g>
<g><path style="opacity:1" fill="#6fad3f" d="M 162.5,182.5 C 162.738,184.404 163.738,185.738 165.5,186.5C 172.628,192.956 178.628,200.29 183.5,208.5C 183.427,210.027 184.094,211.027 185.5,211.5C 185.427,213.027 186.094,214.027 187.5,214.5C 188.338,214.842 188.672,215.508 188.5,216.5C 188.427,218.027 189.094,219.027 190.5,219.5C 197.303,229.899 201.97,241.232 204.5,253.5C 204.41,256.152 205.076,258.485 206.5,260.5C 213.908,297.539 206.742,331.539 185,362.5C 184.107,363.711 183.274,363.711 182.5,362.5C 173.821,347.139 165.155,331.806 156.5,316.5C 156.715,314.821 156.048,313.821 154.5,313.5C 146.167,298.833 137.833,284.167 129.5,269.5C 129.715,267.821 129.048,266.821 127.5,266.5C 122.929,258.362 118.096,250.362 113,242.5C 111.56,243.93 111.226,245.597 112,247.5C 130.705,289.075 149.538,330.575 168.5,372C 161.274,373.594 153.94,373.928 146.5,373C 139.877,372.676 133.544,371.51 127.5,369.5C 125.485,368.076 123.152,367.41 120.5,367.5C 112.363,365.762 105.03,362.429 98.5,357.5C 98.0269,356.094 97.0269,355.427 95.5,355.5C 92.4669,353.984 89.8003,351.984 87.5,349.5C 86.7377,347.738 85.4044,346.738 83.5,346.5C 65.4168,330.032 52.5834,310.032 45,286.5C 33.7486,248.743 31.4153,210.41 38,171.5C 38.947,165.235 40.447,159.235 42.5,153.5C 43.9238,151.485 44.5905,149.152 44.5,146.5C 46.1363,139.424 48.4696,132.591 51.5,126C 94.8206,132.659 131.821,151.493 162.5,182.5 Z"/></g>
<g><path style="opacity:1" fill="#b1d295" d="M 44.5,146.5 C 44.5905,149.152 43.9238,151.485 42.5,153.5C 42.4095,150.848 43.0762,148.515 44.5,146.5 Z"/></g>
<g><path style="opacity:1" fill="#d3e592" d="M 306.5,146.5 C 303.105,150.898 299.105,154.564 294.5,157.5C 297.895,153.102 301.895,149.436 306.5,146.5 Z"/></g>
<g><path style="opacity:1" fill="#dbeaa7" d="M 292.5,159.5 C 292.262,161.404 291.262,162.738 289.5,163.5C 289.738,161.596 290.738,160.262 292.5,159.5 Z"/></g>
<g><path style="opacity:1" fill="#dceaa8" d="M 283.5,169.5 C 283.573,171.027 282.906,172.027 281.5,172.5C 281.427,170.973 282.094,169.973 283.5,169.5 Z"/></g>
<g><path style="opacity:1" fill="#dceaa8" d="M 278.5,175.5 C 278.573,177.027 277.906,178.027 276.5,178.5C 276.427,176.973 277.094,175.973 278.5,175.5 Z"/></g>
<g><path style="opacity:1" fill="#c8dfb4" d="M 162.5,182.5 C 164.262,183.262 165.262,184.596 165.5,186.5C 163.738,185.738 162.738,184.404 162.5,182.5 Z"/></g>
<g><path style="opacity:1" fill="#e0ecb1" d="M 262.5,197.5 C 262.573,199.027 261.906,200.027 260.5,200.5C 260.427,198.973 261.094,197.973 262.5,197.5 Z"/></g>
<g><path style="opacity:1" fill="#c1dbaa" d="M 183.5,208.5 C 184.906,208.973 185.573,209.973 185.5,211.5C 184.094,211.027 183.427,210.027 183.5,208.5 Z"/></g>
<g><path style="opacity:1" fill="#c7dfb3" d="M 185.5,211.5 C 186.906,211.973 187.573,212.973 187.5,214.5C 186.094,214.027 185.427,213.027 185.5,211.5 Z"/></g>
<g><path style="opacity:1" fill="#c2dcac" d="M 188.5,216.5 C 189.906,216.973 190.573,217.973 190.5,219.5C 189.094,219.027 188.427,218.027 188.5,216.5 Z"/></g>
<g><path style="opacity:1" fill="#dae9a3" d="M 406.5,256.5 C 406.573,258.027 405.906,259.027 404.5,259.5C 404.427,257.973 405.094,256.973 406.5,256.5 Z"/></g>
<g><path style="opacity:1" fill="#b3d399" d="M 204.5,253.5 C 205.924,255.515 206.59,257.848 206.5,260.5C 205.076,258.485 204.41,256.152 204.5,253.5 Z"/></g>
<g><path style="opacity:1" fill="#d2e591" d="M 232.5,262.5 C 232.59,265.152 231.924,267.485 230.5,269.5C 230.41,266.848 231.076,264.515 232.5,262.5 Z"/></g>
<g><path style="opacity:1" fill="#bbd7a2" d="M 127.5,266.5 C 129.048,266.821 129.715,267.821 129.5,269.5C 128.599,268.71 127.932,267.71 127.5,266.5 Z"/></g>
<g><path style="opacity:1" fill="#d9e9a2" d="M 390.5,279.5 C 390.573,281.027 389.906,282.027 388.5,282.5C 388.427,280.973 389.094,279.973 390.5,279.5 Z"/></g>
<g><path style="opacity:1" fill="#d9e8a0" d="M 374.5,302.5 C 374.573,304.027 373.906,305.027 372.5,305.5C 372.427,303.973 373.094,302.973 374.5,302.5 Z"/></g>
<g><path style="opacity:1" fill="#bbd8a3" d="M 154.5,313.5 C 156.048,313.821 156.715,314.821 156.5,316.5C 155.599,315.71 154.932,314.71 154.5,313.5 Z"/></g>
<g><path style="opacity:1" fill="#dbeaa7" d="M 367.5,312.5 C 367.573,314.027 366.906,315.027 365.5,315.5C 365.427,313.973 366.094,312.973 367.5,312.5 Z"/></g>
<g><path style="opacity:1" fill="#d8e89f" d="M 358.5,325.5 C 358.573,327.027 357.906,328.027 356.5,328.5C 356.427,326.973 357.094,325.973 358.5,325.5 Z"/></g>
<g><path style="opacity:1" fill="#dbeaa5" d="M 351.5,335.5 C 351.573,337.027 350.906,338.027 349.5,338.5C 349.427,336.973 350.094,335.973 351.5,335.5 Z"/></g>
<g><path style="opacity:1" fill="#bedaa7" d="M 83.5,346.5 C 85.4044,346.738 86.7377,347.738 87.5,349.5C 85.5956,349.262 84.2623,348.262 83.5,346.5 Z"/></g>
<g><path style="opacity:1" fill="#c4ddaf" d="M 95.5,355.5 C 97.0269,355.427 98.0269,356.094 98.5,357.5C 96.9731,357.573 95.9731,356.906 95.5,355.5 Z"/></g>
<g><path style="opacity:1" fill="#dae9a4" d="M 335.5,358.5 C 335.573,360.027 334.906,361.027 333.5,361.5C 333.427,359.973 334.094,358.973 335.5,358.5 Z"/></g>
<g><path style="opacity:1" fill="#a5cb85" d="M 120.5,367.5 C 123.152,367.41 125.485,368.076 127.5,369.5C 124.848,369.59 122.515,368.924 120.5,367.5 Z"/></g>
<g><path style="opacity:1" fill="#d9e9a2" d="M 319.5,381.5 C 319.573,383.027 318.906,384.027 317.5,384.5C 317.427,382.973 318.094,381.973 319.5,381.5 Z"/></g>
<g><path style="opacity:1" fill="#d9e8a1" d="M 303.5,404.5 C 303.573,406.027 302.906,407.027 301.5,407.5C 301.427,405.973 302.094,404.973 303.5,404.5 Z"/></g>
<g><path style="opacity:1" fill="#dbeaa7" d="M 296.5,414.5 C 296.573,416.027 295.906,417.027 294.5,417.5C 294.427,415.973 295.094,414.973 296.5,414.5 Z"/></g>
<g><path style="opacity:1" fill="#d9e8a0" d="M 287.5,427.5 C 287.573,429.027 286.906,430.027 285.5,430.5C 285.427,428.973 286.094,427.973 287.5,427.5 Z"/></g>
<g><path style="opacity:1" fill="#dbeaa6" d="M 280.5,437.5 C 280.573,439.027 279.906,440.027 278.5,440.5C 278.427,438.973 279.094,437.973 280.5,437.5 Z"/></g>
<g><path style="opacity:1" fill="#d5e698" d="M 277.5,449.5 C 280.152,449.41 282.485,450.076 284.5,451.5C 281.848,451.59 279.515,450.924 277.5,449.5 Z"/></g>
</svg>
