<?xml version="1.0" standalone="no"?>
<!DOCTYPE svg PUBLIC "-//W3C//DTD SVG 20010904//EN"
 "http://www.w3.org/TR/2001/REC-SVG-20010904/DTD/svg10.dtd">
<svg version="1.0" xmlns="http://www.w3.org/2000/svg"
 width="1000.000000pt" height="1000.000000pt" viewBox="0 0 1000.000000 1000.000000"
 preserveAspectRatio="xMidYMid meet">

<g transform="translate(0.000000,1000.000000) scale(0.100000,-0.100000)"
fill="#000000" stroke="none">
<path d="M7637 5625 c-65 -36 -122 -65 -128 -65 -5 0 -59 -27 -120 -60 -60
-33 -115 -60 -120 -60 -6 0 -65 -29 -130 -65 -66 -36 -124 -65 -130 -65 -5 0
-59 -27 -120 -60 -60 -33 -115 -60 -120 -60 -6 0 -65 -29 -130 -65 -66 -36
-124 -65 -130 -65 -5 0 -59 -27 -120 -60 -60 -33 -115 -60 -120 -60 -6 0 -65
-29 -130 -65 -66 -36 -124 -65 -130 -65 -5 0 -59 -27 -120 -60 -60 -33 -114
-60 -120 -60 -10 0 -187 -92 -223 -116 -16 -11 -12 -13 32 -11 27 1 48 5 46 8
-2 4 16 10 40 13 73 11 99 17 110 24 6 3 19 8 28 9 9 2 36 9 59 17 46 16 60
13 93 -18 12 -12 33 -28 45 -36 13 -8 30 -21 37 -28 8 -7 14 -10 14 -6 0 4 6
0 13 -9 16 -21 142 -88 151 -80 3 3 6 0 6 -7 0 -7 3 -10 7 -7 3 4 17 0 30 -8
13 -9 23 -13 23 -10 0 3 10 0 23 -7 12 -6 27 -13 32 -14 6 -2 33 -9 62 -17
102 -29 278 -41 400 -28 98 10 226 40 258 59 6 4 16 7 24 8 30 5 186 87 249
131 90 64 227 202 284 288 48 73 99 161 98 170 0 3 6 18 14 33 29 57 68 210
67 261 -1 12 2 27 5 32 8 13 10 268 2 263 -4 -3 -8 15 -10 38 -2 29 -8 44 -18
45 -8 2 -68 -27 -133 -62z"/>
<path d="M5490 4556 c0 -2 7 -6 15 -10 8 -3 15 -1 15 4 0 6 -7 10 -15 10 -8 0
-15 -2 -15 -4z"/>
<path d="M5080 4351 c-41 -21 -110 -56 -152 -77 -74 -37 -76 -40 -80 -79 -3
-22 -6 -227 -7 -455 -1 -228 -6 -419 -11 -424 -4 -4 -14 -4 -22 0 -40 25 -218
168 -218 176 0 6 10 42 21 80 29 94 22 190 -20 283 -17 36 -31 69 -32 73 -1 4
-25 30 -55 59 l-53 52 -91 -50 c-50 -27 -95 -49 -101 -49 -5 0 -63 -29 -129
-65 -66 -36 -124 -65 -130 -65 -6 0 -60 -27 -121 -60 -60 -33 -114 -60 -119
-60 -17 0 -10 -93 10 -137 10 -24 16 -43 12 -43 -4 0 -2 -4 4 -8 6 -4 23 -28
38 -54 15 -26 48 -65 74 -88 45 -40 142 -97 142 -84 0 4 7 0 17 -7 11 -10 48
-14 127 -14 105 0 115 2 181 33 39 19 80 43 92 54 l22 21 38 -29 c21 -15 100
-77 175 -137 l138 -109 2 -647 3 -648 28 -36 c66 -87 180 -98 261 -26 72 63
69 21 62 956 -3 461 -8 888 -10 948 -3 61 -5 255 -5 433 -1 177 -4 322 -8 322
-5 0 -42 -18 -83 -39z"/>
</g>
</svg>
